<svg xmlns="http://www.w3.org/2000/svg" viewBox="0 0 800 600" width="800" height="600">
  <!-- Background -->
  <rect width="800" height="600" fill="#ffffff" rx="10" ry="10" />
  <rect x="10" y="10" width="780" height="580" fill="#f8fafc" rx="8" ry="8" stroke="#e2e8f0" stroke-width="1" />
  
  <!-- Header -->
  <rect x="20" y="20" width="760" height="60" fill="#ffffff" rx="6" ry="6" />
  <text x="40" y="55" font-family="Arial" font-size="22" font-weight="bold" fill="#1e293b">Dashboard de E-commerce</text>
  <text x="40" y="75" font-family="Arial" font-size="14" fill="#64748b">Últimos 6 meses • MinhaLoja.com</text>
  
  <!-- Main Metrics -->
  <rect x="40" y="100" width="230" height="100" fill="#ebf8ff" rx="6" ry="6" stroke="#bfdbfe" stroke-width="1" />
  <text x="60" y="130" font-family="Arial" font-size="14" font-weight="bold" fill="#3b82f6">Receita Total</text>
  <text x="60" y="160" font-family="Arial" font-size="24" font-weight="bold" fill="#1e293b">R$ 110.500,00</text>
  <text x="60" y="180" font-family="Arial" font-size="12" fill="#3b82f6">+15.8% vs período anterior</text>
  
  <rect x="285" y="100" width="230" height="100" fill="#ecfdf5" rx="6" ry="6" stroke="#c6f6d5" stroke-width="1" />
  <text x="305" y="130" font-family="Arial" font-size="14" font-weight="bold" fill="#10b981">Pedidos</text>
  <text x="305" y="160" font-family="Arial" font-size="24" font-weight="bold" fill="#1e293b">1.283</text>
  <text x="305" y="180" font-family="Arial" font-size="12" fill="#10b981">+8.2% vs período anterior</text>
  
  <rect x="530" y="100" width="230" height="100" fill="#f3e8ff" rx="6" ry="6" stroke="#e9d5ff" stroke-width="1" />
  <text x="550" y="130" font-family="Arial" font-size="14" font-weight="bold" fill="#8b5cf6">Ticket Médio</text>
  <text x="550" y="160" font-family="Arial" font-size="24" font-weight="bold" fill="#1e293b">R$ 86,13</text>
  <text x="550" y="180" font-family="Arial" font-size="12" fill="#8b5cf6">+5.3% vs período anterior</text>
  
  <!-- Sales Chart -->
  <text x="40" y="230" font-family="Arial" font-size="18" font-weight="bold" fill="#1e293b">Vendas Mensais</text>
  <rect x="40" y="250" width="720" height="200" fill="#ffffff" rx="6" ry="6" stroke="#e2e8f0" stroke-width="1" />
  
  <!-- Chart Bars -->
  <rect x="100" y="400" width="40" height="30" fill="#4361ee" rx="3" ry="3" />
  <rect x="200" y="380" width="40" height="50" fill="#4361ee" rx="3" ry="3" />
  <rect x="300" y="360" width="40" height="70" fill="#4361ee" rx="3" ry="3" />
  <rect x="400" y="330" width="40" height="100" fill="#4361ee" rx="3" ry="3" />
  <rect x="500" y="350" width="40" height="80" fill="#4361ee" rx="3" ry="3" />
  <rect x="600" y="320" width="40" height="110" fill="#4361ee" rx="3" ry="3" />
  
  <!-- Chart Labels -->
  <text x="110" y="440" font-family="Arial" font-size="12" fill="#64748b" text-anchor="middle">Jan</text>
  <text x="210" y="440" font-family="Arial" font-size="12" fill="#64748b" text-anchor="middle">Fev</text>
  <text x="310" y="440" font-family="Arial" font-size="12" fill="#64748b" text-anchor="middle">Mar</text>
  <text x="410" y="440" font-family="Arial" font-size="12" fill="#64748b" text-anchor="middle">Abr</text>
  <text x="510" y="440" font-family="Arial" font-size="12" fill="#64748b" text-anchor="middle">Mai</text>
  <text x="610" y="440" font-family="Arial" font-size="12" fill="#64748b" text-anchor="middle">Jun</text>
  
  <!-- Left Panel - Top Products -->
  <text x="40" y="480" font-family="Arial" font-size="18" font-weight="bold" fill="#1e293b">Top Produtos</text>
  <rect x="40" y="490" width="350" height="160" fill="#ffffff" rx="6" ry="6" stroke="#e2e8f0" stroke-width="1" />
  
  <!-- Table Headers -->
  <text x="60" y="520" font-family="Arial" font-size="14" font-weight="bold" fill="#64748b">Produto</text>
  <text x="280" y="520" font-family="Arial" font-size="14" font-weight="bold" fill="#64748b" text-anchor="end">Qtd</text>
  <text x="370" y="520" font-family="Arial" font-size="14" font-weight="bold" fill="#64748b" text-anchor="end">Receita</text>
  
  <!-- Table Rows -->
  <line x1="60" y1="530" x2="370" y2="530" stroke="#e2e8f0" stroke-width="1" />
  
  <text x="60" y="550" font-family="Arial" font-size="13" fill="#1e293b">Smartphone X Pro</text>
  <text x="280" y="550" font-family="Arial" font-size="13" fill="#1e293b" text-anchor="end">245</text>
  <text x="370" y="550" font-family="Arial" font-size="13" fill="#1e293b" text-anchor="end">R$ 122.500</text>
  
  <line x1="60" y1="560" x2="370" y2="560" stroke="#e2e8f0" stroke-width="1" />
  
  <text x="60" y="580" font-family="Arial" font-size="13" fill="#1e293b">Notebook Ultra</text>
  <text x="280" y="580" font-family="Arial" font-size="13" fill="#1e293b" text-anchor="end">187</text>
  <text x="370" y="580" font-family="Arial" font-size="13" fill="#1e293b" text-anchor="end">R$ 280.500</text>
  
  <line x1="60" y1="590" x2="370" y2="590" stroke="#e2e8f0" stroke-width="1" />
  
  <text x="60" y="610" font-family="Arial" font-size="13" fill="#1e293b">Fones de Ouvido BT</text>
  <text x="280" y="610" font-family="Arial" font-size="13" fill="#1e293b" text-anchor="end">312</text>
  <text x="370" y="610" font-family="Arial" font-size="13" fill="#1e293b" text-anchor="end">R$ 43.680</text>
  
  <line x1="60" y1="620" x2="370" y2="620" stroke="#e2e8f0" stroke-width="1" />
  
  <text x="60" y="640" font-family="Arial" font-size="13" fill="#1e293b">Smartwatch Fit</text>
  <text x="280" y="640" font-family="Arial" font-size="13" fill="#1e293b" text-anchor="end">198</text>
  <text x="370" y="640" font-family="Arial" font-size="13" fill="#1e293b" text-anchor="end">R$ 59.400</text>
  
  <!-- Right Panel - Customer Segments & Inventory -->
  <text x="410" y="480" font-family="Arial" font-size="18" font-weight="bold" fill="#1e293b">Segmentação de Clientes</text>
  <rect x="410" y="490" width="350" height="80" fill="#ffffff" rx="6" ry="6" stroke="#e2e8f0" stroke-width="1" />
  
  <!-- Customer Segments -->
  <circle cx="430" cy="510" r="6" fill="#9C27B0" />
  <text x="445" y="515" font-family="Arial" font-size="13" fill="#1e293b">Novos Clientes</text>
  <text x="730" y="515" font-family="Arial" font-size="13" font-weight="bold" fill="#1e293b" text-anchor="end">235</text>
  
  <circle cx="430" cy="535" r="6" fill="#2196F3" />
  <text x="445" y="540" font-family="Arial" font-size="13" fill="#1e293b">Clientes Recorrentes</text>
  <text x="730" y="540" font-family="Arial" font-size="13" font-weight="bold" fill="#1e293b" text-anchor="end">428</text>
  
  <circle cx="430" cy="560" r="6" fill="#FFC107" />
  <text x="445" y="565" font-family="Arial" font-size="13" fill="#1e293b">Clientes Inativos</text>
  <text x="730" y="565" font-family="Arial" font-size="13" font-weight="bold" fill="#1e293b" text-anchor="end">112</text>
  
  <!-- Inventory Status -->
  <text x="410" y="590" font-family="Arial" font-size="18" font-weight="bold" fill="#1e293b">Status do Estoque</text>
  <rect x="410" y="600" width="350" height="80" fill="#ffffff" rx="6" ry="6" stroke="#e2e8f0" stroke-width="1" />
  
  <circle cx="430" cy="620" r="6" fill="#4CAF50" />
  <text x="445" y="625" font-family="Arial" font-size="13" fill="#1e293b">Em Estoque</text>
  <text x="730" y="625" font-family="Arial" font-size="13" font-weight="bold" fill="#1e293b" text-anchor="end">452</text>
  
  <circle cx="430" cy="645" r="6" fill="#FFC107" />
  <text x="445" y="650" font-family="Arial" font-size="13" fill="#1e293b">Estoque Baixo</text>
  <text x="730" y="650" font-family="Arial" font-size="13" font-weight="bold" fill="#1e293b" text-anchor="end">38</text>
  
  <circle cx="430" cy="670" r="6" fill="#F44336" />
  <text x="445" y="675" font-family="Arial" font-size="13" fill="#1e293b">Sem Estoque</text>
  <text x="730" y="675" font-family="Arial" font-size="13" font-weight="bold" fill="#1e293b" text-anchor="end">14</text>
  
  <!-- Footer -->
  <text x="400" y="710" font-family="Arial" font-size="11" fill="#94a3b8" text-anchor="middle">Gerado pelo PHP Universal MCP Server • v1.5.0</text>
</svg>
