<svg xmlns="http://www.w3.org/2000/svg" viewBox="0 0 800 550" width="800" height="550">
  <!-- Background -->
  <rect width="800" height="550" fill="#ffffff" rx="10" ry="10" />
  <rect x="10" y="10" width="780" height="530" fill="#f8fafc" rx="8" ry="8" stroke="#e2e8f0" stroke-width="1" />
  
  <!-- Header -->
  <rect x="20" y="20" width="760" height="60" fill="#ffffff" rx="6" ry="6" />
  <text x="40" y="50" font-family="Arial" font-size="22" font-weight="bold" fill="#1e293b">Gerenciamento de Produtos</text>
  <text x="40" y="70" font-family="Arial" font-size="14" fill="#64748b">Loja Shopify • Total: 5 produtos</text>
  
  <!-- Add Product Button -->
  <rect x="600" y="35" width="160" height="35" fill="#2563eb" rx="4" ry="4" />
  <text x="680" y="57" font-family="Arial" font-size="14" fill="#ffffff" text-anchor="middle">+ Adicionar Produto</text>
  
  <!-- Filters -->
  <rect x="40" y="90" width="740" height="40" fill="#ffffff" rx="6" ry="6" />
  
  <rect x="50" y="95" width="80" height="30" fill="#dbeafe" rx="4" ry="4" />
  <text x="90" y="115" font-family="Arial" font-size="14" fill="#1e40af" text-anchor="middle">Todos (5)</text>
  
  <rect x="140" y="95" width="110" height="30" fill="#ffffff" rx="4" ry="4" />
  <text x="195" y="115" font-family="Arial" font-size="14" fill="#64748b" text-anchor="middle">Em Estoque (3)</text>
  
  <rect x="260" y="95" width="130" height="30" fill="#ffffff" rx="4" ry="4" />
  <text x="325" y="115" font-family="Arial" font-size="14" fill="#64748b" text-anchor="middle">Estoque Baixo (1)</text>
  
  <rect x="400" y="95" width="120" height="30" fill="#ffffff" rx="4" ry="4" />
  <text x="460" y="115" font-family="Arial" font-size="14" fill="#64748b" text-anchor="middle">Sem Estoque (1)</text>
  
  <!-- Table Header -->
  <rect x="40" y="140" width="740" height="40" fill="#f8fafc" rx="4" ry="4" />
  <text x="100" y="165" font-family="Arial" font-size="14" font-weight="bold" fill="#1e293b">Produto</text>
  <text x="300" y="165" font-family="Arial" font-size="14" font-weight="bold" fill="#1e293b">Categoria</text>
  <text x="450" y="165" font-family="Arial" font-size="14" font-weight="bold" fill="#1e293b" text-anchor="end">Preço</text>
  <text x="550" y="165" font-family="Arial" font-size="14" font-weight="bold" fill="#1e293b" text-anchor="end">Estoque</text>
  <text x="650" y="165" font-family="Arial" font-size="14" font-weight="bold" fill="#1e293b" text-anchor="end">Status</text>
  <text x="720" y="165" font-family="Arial" font-size="14" font-weight="bold" fill="#1e293b" text-anchor="middle">Ações</text>
  
  <line x1="40" y1="180" x2="780" y2="180" stroke="#e2e8f0" stroke-width="1" />
  
  <!-- Table Rows -->
  <!-- Row 1 -->
  <rect x="40" y="180" width="740" height="60" fill="#ffffff" />
  <rect x="60" y="195" width="30" height="30" fill="#f1f5f9" rx="3" ry="3" />
  <text x="105" y="210" font-family="Arial" font-size="14" font-weight="normal" fill="#1e293b">Smartphone X Pro</text>
  <text x="300" y="210" font-family="Arial" font-size="14" fill="#64748b">Eletrônicos</text>
  <text x="450" y="210" font-family="Arial" font-size="14" fill="#1e293b" text-anchor="end">R$ 1.899,99</text>
  <text x="550" y="210" font-family="Arial" font-size="14" fill="#1e293b" text-anchor="end">45</text>
  
  <rect x="590" y="195" width="100" height="22" fill="#dcfce7" rx="10" ry="10" />
  <text x="640" y="210" font-family="Arial" font-size="12" fill="#166534" text-anchor="middle">Em estoque</text>
  
  <text x="695" y="210" font-family="Arial" font-size="14" fill="#2563eb">Editar</text>
  <text x="745" y="210" font-family="Arial" font-size="14" fill="#64748b">Detalhes</text>
  
  <line x1="40" y1="240" x2="780" y2="240" stroke="#e2e8f0" stroke-width="1" />
  
  <!-- Row 2 -->
  <rect x="40" y="240" width="740" height="60" fill="#ffffff" />
  <rect x="60" y="255" width="30" height="30" fill="#f1f5f9" rx="3" ry="3" />
  <text x="105" y="270" font-family="Arial" font-size="14" font-weight="normal" fill="#1e293b">Notebook Ultra</text>
  <text x="300" y="270" font-family="Arial" font-size="14" fill="#64748b">Computadores</text>
  <text x="450" y="270" font-family="Arial" font-size="14" fill="#1e293b" text-anchor="end">R$ 3.499,90</text>
  <text x="550" y="270" font-family="Arial" font-size="14" fill="#1e293b" text-anchor="end">12</text>
  
  <rect x="590" y="255" width="100" height="22" fill="#dcfce7" rx="10" ry="10" />
  <text x="640" y="270" font-family="Arial" font-size="12" fill="#166534" text-anchor="middle">Em estoque</text>
  
  <text x="695" y="270" font-family="Arial" font-size="14" fill="#2563eb">Editar</text>
  <text x="745" y="270" font-family="Arial" font-size="14" fill="#64748b">Detalhes</text>
  
  <line x1="40" y1="300" x2="780" y2="300" stroke="#e2e8f0" stroke-width="1" />
  
  <!-- Row 3 - Editing mode -->
  <rect x="40" y="300" width="740" height="60" fill="#f9fafb" />
  <rect x="60" y="315" width="30" height="30" fill="#f1f5f9" rx="3" ry="3" />
  <text x="105" y="330" font-family="Arial" font-size="14" font-weight="normal" fill="#1e293b">Fones de Ouvido BT</text>
  <text x="300" y="330" font-family="Arial" font-size="14" fill="#64748b">Acessórios</text>
  
  <!-- Editable price field -->
  <rect x="390" y="315" width="60" height="25" fill="#ffffff" stroke="#d1d5db" stroke-width="1" rx="3" ry="3" />
  <text x="450" y="330" font-family="Arial" font-size="14" fill="#1e293b" text-anchor="end">299.90</text>
  
  <!-- Editable stock field -->
  <rect x="510" y="315" width="40" height="25" fill="#ffffff" stroke="#d1d5db" stroke-width="1" rx="3" ry="3" />
  <text x="550" y="330" font-family="Arial" font-size="14" fill="#1e293b" text-anchor="end">78</text>
  
  <rect x="590" y="315" width="100" height="22" fill="#dcfce7" rx="10" ry="10" />
  <text x="640" y="330" font-family="Arial" font-size="12" fill="#166534" text-anchor="middle">Em estoque</text>
  
  <text x="695" y="330" font-family="Arial" font-size="14" fill="#16a34a">Salvar</text>
  <text x="745" y="330" font-family="Arial" font-size="14" fill="#64748b">Cancelar</text>
  
  <line x1="40" y1="360" x2="780" y2="360" stroke="#e2e8f0" stroke-width="1" />
  
  <!-- Row 4 -->
  <rect x="40" y="360" width="740" height="60" fill="#ffffff" />
  <rect x="60" y="375" width="30" height="30" fill="#f1f5f9" rx="3" ry="3" />
  <text x="105" y="390" font-family="Arial" font-size="14" font-weight="normal" fill="#1e293b">Smartwatch Fit</text>
  <text x="300" y="390" font-family="Arial" font-size="14" fill="#64748b">Wearables</text>
  <text x="450" y="390" font-family="Arial" font-size="14" fill="#1e293b" text-anchor="end">R$ 499,99</text>
  <text x="550" y="390" font-family="Arial" font-size="14" fill="#1e293b" text-anchor="end">0</text>
  
  <rect x="590" y="375" width="100" height="22" fill="#fee2e2" rx="10" ry="10" />
  <text x="640" y="390" font-family="Arial" font-size="12" fill="#b91c1c" text-anchor="middle">Sem estoque</text>
  
  <text x="695" y="390" font-family="Arial" font-size="14" fill="#2563eb">Editar</text>
  <text x="745" y="390" font-family="Arial" font-size="14" fill="#64748b">Detalhes</text>
  
  <line x1="40" y1="420" x2="780" y2="420" stroke="#e2e8f0" stroke-width="1" />
  
  <!-- Row 5 -->
  <rect x="40" y="420" width="740" height="60" fill="#ffffff" />
  <rect x="60" y="435" width="30" height="30" fill="#f1f5f9" rx="3" ry="3" />
  <text x="105" y="450" font-family="Arial" font-size="14" font-weight="normal" fill="#1e293b">Tablet Mini</text>
  <text x="300" y="450" font-family="Arial" font-size="14" fill="#64748b">Eletrônicos</text>
  <text x="450" y="450" font-family="Arial" font-size="14" fill="#1e293b" text-anchor="end">R$ 1.299,90</text>
  <text x="550" y="450" font-family="Arial" font-size="14" fill="#1e293b" text-anchor="end">5</text>
  
  <rect x="590" y="435" width="100" height="22" fill="#fef3c7" rx="10" ry="10" />
  <text x="640" y="450" font-family="Arial" font-size="12" fill="#92400e" text-anchor="middle">Estoque baixo</text>
  
  <text x="695" y="450" font-family="Arial" font-size="14" fill="#2563eb">Editar</text>
  <text x="745" y="450" font-family="Arial" font-size="14" fill="#64748b">Detalhes</text>
  
  <line x1="40" y1="480" x2="780" y2="480" stroke="#e2e8f0" stroke-width="1" />
  
  <!-- Pagination -->
  <text x="50" y="510" font-family="Arial" font-size="14" fill="#64748b">Mostrando 5 de 5 produtos</text>
  
  <rect x="600" y="490" width="40" height="30" fill="#ffffff" stroke="#e2e8f0" stroke-width="1" rx="3" ry="3" />
  <text x="620" y="510" font-family="Arial" font-size="14" fill="#64748b" text-anchor="middle">Ant</text>
  
  <rect x="640" y="490" width="30" height="30" fill="#2563eb" rx="3" ry="3" />
  <text x="655" y="510" font-family="Arial" font-size="14" fill="#ffffff" text-anchor="middle">1</text>
  
  <rect x="670" y="490" width="30" height="30" fill="#ffffff" stroke="#e2e8f0" stroke-width="1" rx="3" ry="3" />
  <text x="685" y="510" font-family="Arial" font-size="14" fill="#64748b" text-anchor="middle">2</text>
  
  <rect x="700" y="490" width="40" height="30" fill="#ffffff" stroke="#e2e8f0" stroke-width="1" rx="3" ry="3" />
  <text x="720" y="510" font-family="Arial" font-size="14" fill="#64748b" text-anchor="middle">Próx</text>
  
  <!-- Footer -->
  <text x="400" y="535" font-family="Arial" font-size="11" fill="#94a3b8" text-anchor="middle">PHP Universal MCP Server • v1.5.0 • Interface via Claude Artifacts</text>
</svg>
